<svg width="148" height="56" viewBox="0 0 148 56" fill="none" xmlns="http://www.w3.org/2000/svg">
<g clip-path="url(#clip0_126_6585)">
<path d="M33.8265 4.37611C33.8265 9.02146 33.8265 13.6533 33.8265 18.2852C35.5174 16.4246 37.5654 14.9355 39.8441 13.9097C42.1228 12.8838 44.584 12.3429 47.0762 12.3203C56.8811 12.3203 61.7835 17.5716 61.7835 28.0741V55.9731H50.2297V30.8883C50.3871 28.5388 49.852 26.1949 48.6927 24.1559C47.6592 22.6209 45.7115 21.8399 42.8496 21.8399C39.3781 21.8399 36.9932 22.971 35.6947 25.233C34.3301 28.0212 33.6871 31.1168 33.8265 34.2275V55.9731H22.5244V0.511719L33.8265 4.37611Z" fill="#1E1E1E"/>
<path d="M88.8394 12.401H88.6804C85.9994 12.5513 83.3761 13.2521 80.969 14.4611C78.7938 15.5567 76.832 17.0439 75.1789 18.8506C75.1789 17.0463 75.1789 15.2421 75.2716 13.4647L64.3008 9.51953V55.973H75.8413V36.5029C75.8317 35.2267 75.9292 33.9519 76.1328 32.6924C76.2156 30.0587 77.3054 27.5615 79.1708 25.7312C81.0362 23.9009 83.5302 22.8817 86.1232 22.8901H113.02V12.4414L88.8394 12.401Z" fill="#1E1E1E"/>
<path d="M105.521 29.1782H80.4395V39.6538H105.521V29.1782Z" fill="#1E1E1E"/>
<path d="M112.981 45.4839H80.4395V55.9595H112.981V45.4839Z" fill="#1E1E1E"/>
<path d="M148 29.1782H122.918V39.6538H148V29.1782Z" fill="#1E1E1E"/>
<path d="M139.732 12.3876H139.56H115.419V22.8901H142.316C144.347 22.8895 146.33 23.519 148 24.6944V14.8112C145.552 13.1637 142.668 12.3135 139.732 12.3741" fill="#1E1E1E"/>
<path d="M139.732 55.973H139.56H115.419V45.4974H142.316C144.35 45.5002 146.335 44.8654 148 43.6797V53.5359C145.549 55.1757 142.667 56.0252 139.732 55.973Z" fill="#1E1E1E"/>
<path d="M19.8747 23.9808V14.8113H11.3286V3.824L0 0V45.7802C0.291495 49.2945 1.13948 51.799 2.55721 53.2397C4.94217 55.6634 8.95685 55.7307 12.8655 55.9327C13.2233 55.9327 14.6145 55.9327 16.39 56.0135C17.8475 56.0135 19.0399 56.0135 19.8084 56.0135V46.7901C17.6839 46.9891 15.5434 46.9212 13.4353 46.5881C13.1242 46.4692 12.8335 46.3011 12.574 46.0899C12.3115 45.8893 12.0908 45.6375 11.9248 45.3494C11.6193 44.8164 11.4254 44.2251 11.3551 43.6124C11.3551 43.0065 11.2756 42.0774 11.2756 40.8117V23.9808H19.8747Z" fill="#1E1E1E"/>
</g>
<defs>
<clipPath id="clip0_126_6585">
<rect width="148" height="56" fill="white"/>
</clipPath>
</defs>
</svg>
